<svg class="svg-icon" style="width: 1em;height: 1em;vertical-align: middle;fill: currentColor;overflow: hidden;" viewBox="0 0 1024 1024" version="1.1" xmlns="http://www.w3.org/2000/svg"><path d="M784.71 534.29V497.7c0-47.08-38.31-85.39-85.39-85.39h-6.5l5.31-3.05c7.88-4.45 13.59-11.69 16.08-20.41 2.51-8.79 1.44-18.03-3-26.02l-75.78-136.25c-9.17-16.49-30.05-22.45-46.55-13.28L326.09 359.46c-16.49 9.17-22.45 30.05-13.32 46.46l3.99 7.24c-41.45 5.82-73.46 41.5-73.46 84.54v33.06c-19.69 16.34-32.26 40.99-32.26 68.51v155.14c0 49.08 39.93 89 89 89h423.93c49.07 0 89-39.92 89-89V599.28c-0.01-25.62-10.89-48.73-28.26-64.99z m-85.39-71.98c19.51 0 35.39 15.88 35.39 35.39v13.22c-3.52-0.43-7.11-0.65-10.74-0.65H522.42l83.43-47.96h93.47zM426.1 507.98l-28.24-51.23 235.4-131.18 26.68 47.97L426.1 507.98z m173.29-243.32l9.57 17.21-235.23 131.09-9.61-17.44 235.27-130.86zM293.29 497.7c0-19.51 15.88-35.39 35.39-35.39h15.16l26.43 47.96h-70.24c-2.27 0-4.52 0.09-6.74 0.25V497.7z m469.67 256.72c0 21.5-17.5 39-39 39H300.04c-21.5 0-39-17.5-39-39V599.28c0-21.5 17.5-39 39-39h423.93c21.5 0 39 17.5 39 39v155.14z" fill="#74DBD1" /><path d="M396.62 600.56h-68.21c-13.81 0-25 11.19-25 25s11.19 25 25 25h68.21c13.81 0 25-11.19 25-25s-11.19-25-25-25zM548.27 600.56h-68.21c-13.81 0-25 11.19-25 25s11.19 25 25 25h68.21c13.81 0 25-11.19 25-25s-11.19-25-25-25zM698.83 600.56h-68.21c-13.81 0-25 11.19-25 25s11.19 25 25 25h68.21c13.81 0 25-11.19 25-25s-11.19-25-25-25z" fill="#74DBD1" /></svg>